<svg xmlns="http://www.w3.org/2000/svg"  viewBox="0 0 40 40" width="40px" height="40px"><path fill="#fff" d="M17.732,38.5c-2.516,0-4.829-1.351-5.893-3.443l-2.504-4.735C9.139,29.886,8.5,28.478,8.5,27.093 c0-2.801,1.931-5.257,2.72-5.644l0.28-0.137V4c0-1.378,1.122-2.5,2.5-2.5s2.5,1.122,2.5,2.5v9.901l0.834-0.751 C17.8,12.731,18.392,12.5,19,12.5c1.036,0,1.976,0.659,2.337,1.64l0.282,0.765l0.554-0.598C22.655,13.787,23.304,13.5,24,13.5 c1.036,0,1.976,0.659,2.337,1.64l0.282,0.765l0.554-0.598C27.655,14.787,28.304,14.5,29,14.5c1.378,0,2.5,1.122,2.5,2.5v15.245 c0,3.449-2.98,6.255-6.643,6.255H17.732z"/><path fill="#788b9c" d="M14,2c1.103,0,2,0.897,2,2v8.779v2.247l1.669-1.504C17.933,13.284,18.379,13,19,13 c0.828,0,1.578,0.528,1.868,1.313l0.564,1.529l1.108-1.195C22.926,14.23,23.445,14,24,14c0.828,0,1.578,0.528,1.868,1.313 l0.564,1.529l1.108-1.195C27.926,15.23,28.445,15,29,15c1.103,0,2,0.897,2,2v15.244C31,35.418,28.244,38,24.857,38h-6.972h-0.153 c-2.329,0-4.468-1.244-5.455-3.183l-2.486-4.701C9.266,28.95,9,27.933,9,27.093c0-2.581,1.833-4.898,2.44-5.195L12,21.624V21V4 C12,2.897,12.897,2,14,2 M14,1c-1.657,0-3,1.343-3,3v17c-1.052,0.516-3,3.215-3,6.093c0,1.436,0.625,2.871,0.893,3.462l2.5,4.729 C12.554,37.564,15.054,39,17.732,39c0,0,0.054,0,0.153,0c1.116,0,6.972,0,6.972,0C28.786,39,32,35.96,32,32.244 c0,0,0-15.041,0-15.244c0-1.657-1.343-3-3-3c-0.87,0-1.646,0.376-2.194,0.967C26.384,13.821,25.292,13,24,13 c-0.87,0-1.646,0.376-2.194,0.967C21.384,12.821,20.292,12,19,12c-0.772,0-1.468,0.3-2,0.779V4C17,2.343,15.657,1,14,1L14,1z"/><path fill="#fff" stroke="#788b9c" stroke-miterlimit="10" d="M21.5 31L21.5 21M17.5 31L17.5 21M25.5 31L25.5 21"/></svg>